Coordinates
version=1
nRows=5
nColumns=40
inDegrees=yes

Units are S.I. units (second, meters, Newtons, ...)
If the header above contains a line with 'inDegrees', this indicates whether rotational values are in degrees (yes) or radians (no).

endheader
time	pelvis_tilt	pelvis_list	pelvis_rotation	pelvis_tx	pelvis_ty	pelvis_tz	hip_flexion_r	hip_adduction_r	hip_rotation_r	knee_angle_r	knee_angle_r_beta	ankle_angle_r	subtalar_angle_r	mtp_angle_r	hip_flexion_l	hip_adduction_l	hip_rotation_l	knee_angle_l	knee_angle_l_beta	ankle_angle_l	subtalar_angle_l	mtp_angle_l	lumbar_extension	lumbar_bending	lumbar_rotation	arm_flex_r	arm_add_r	arm_rot_r	elbow_flex_r	pro_sup_r	wrist_flex_r	wrist_dev_r	arm_flex_l	arm_add_l	arm_rot_l	elbow_flex_l	pro_sup_l	wrist_flex_l	wrist_dev_l
      4.07500000	    -15.84861422	      1.34234872	      0.80252431	     -0.32697073	      0.92166525	     -0.99336633	     23.14795562	    -11.80438541	      0.09273384	     83.37439884	      1.45515777	     -7.46632746	      0.00000000	      0.00000000	     48.92443623	      0.31760700	     -8.01382743	     57.58353112	      1.00502221	     15.30503155	      0.00000000	      0.00000000	     -4.43133467	     -9.58158345	     -6.35563268	     89.87901271	     -7.02386065	     51.88862518	     55.67443434	     84.67101630	      0.00000000	      0.00000000	     89.92964412	    -23.77428502	     48.99662036	     63.96136198	     82.20353015	      0.00000000	      0.00000000
      4.08000000	    -15.88691069	      1.37472581	      0.83810283	     -0.32725042	      0.92081565	     -0.99333641	     23.24060864	    -11.86033164	      0.14175153	     83.54025780	      1.45805256	     -7.43380087	      0.00000000	      0.00000000	     49.06343150	      0.32952042	     -8.08584957	     57.73958082	      1.00774579	     15.33081457	      0.00000000	      0.00000000	     -4.43845967	     -9.65366767	     -6.40977597	     89.88049059	     -7.00271132	     51.79974266	     55.62507108	     85.21418009	      0.00000000	      0.00000000	     89.92985907	    -23.71168332	     49.05061682	     63.95158764	     79.88770904	      0.00000000	      0.00000000
      4.08500000	    -16.00130578	      1.34342934	      0.89236163	     -0.32775323	      0.92002514	     -0.99336326	     23.42201146	    -11.82725277	      0.18007591	     83.67737271	      1.46044566	     -7.41459771	      0.00000000	      0.00000000	     49.31506931	      0.34559163	     -8.01193096	     57.92425446	      1.01096896	     15.39473431	      0.00000000	      0.00000000	     -4.39514353	     -9.64481389	     -6.44018775	     89.88134550	     -7.05521321	     51.73501998	     55.67035459	     84.78056126	      0.00000000	      0.00000000	     89.93037708	    -23.58655429	     48.78457906	     63.78667681	     82.10228157	      0.00000000	      0.00000000
      4.09000000	    -16.10290265	      1.33817784	      0.94468218	     -0.32811018	      0.91922071	     -0.99330363	     23.56344803	    -11.82219710	      0.23351782	     83.79933228	      1.46257426	     -7.43640414	      0.00000000	      0.00000000	     49.52558086	      0.36172133	     -8.00250756	     58.06163067	      1.01336662	     15.43416201	      0.00000000	      0.00000000	     -4.36123173	     -9.68035963	     -6.50492643	     89.88236140	     -7.02247568	     51.58139307	     55.56807964	     84.73875669	      0.00000000	      0.00000000	     89.93048138	    -23.52227108	     48.67045809	     63.76272779	     82.11619334	      0.00000000	      0.00000000
      4.09500000	    -16.16496425	      1.31409350	      0.99777838	     -0.32846640	      0.91834920	     -0.99333947	     23.67394506	    -11.80443770	      0.28584245	     83.92546104	      1.46477562	     -7.45162829	      0.00000000	      0.00000000	     49.71423413	      0.37515746	     -7.96001920	     58.26236098	      1.01687003	     15.52868314	      0.00000000	      0.00000000	     -4.36667543	     -9.68656063	     -6.53203292	     89.88323516	     -7.12860440	     51.50959043	     55.75227021	     85.26350732	      0.00000000	      0.00000000	     89.93095150	    -23.38903221	     48.61899109	     63.73593238	     80.18478643	      0.00000000	      0.00000000
